<svg width="35" height="28" viewBox="0 0 35 28" fill="none" xmlns="http://www.w3.org/2000/svg">
<path d="M13.3271 2.35847L12.8387 2.34847L12.8173 2.83646C12.5473 8.99378 10.9865 12.1206 9.36702 13.5976C7.75544 15.0674 6.03467 14.9583 5.22361 14.5528L4.8012 14.3416L4.56626 14.7513L2.4013 18.5265L2.30575 18.6931L2.34632 18.8808C2.95473 21.6966 4.26848 23.6289 6.57857 24.867C8.84503 26.0818 12.0248 26.602 16.3085 26.748L16.7022 26.7615L16.8074 26.3818L18.4063 20.608C19.5655 21.0353 20.475 21.1694 21.2875 20.9883C22.2199 20.7804 22.9249 20.1773 23.6705 19.4163L24.0941 18.984L23.5897 18.6496C22.6406 18.0204 22.0188 17.5589 21.6153 17.11C21.3752 16.8429 21.2134 16.5811 21.1132 16.2859C23.3761 16.3474 25.1376 16.2869 26.39 15.8239C27.0949 15.5633 27.6628 15.168 28.069 14.5828C28.4708 14.0039 28.6852 13.281 28.7612 12.4133L28.8078 11.8815L28.2741 11.8698C26.8342 11.8381 26.0466 11.624 25.5771 11.1639C25.1073 10.7036 24.837 9.87911 24.7837 8.27673L24.7675 7.79338H24.2839H20.9243L20.4101 4.62235L20.3714 4.38394L20.1606 4.26603C19.0466 3.64286 18.1185 3.1755 17.0715 2.8608C16.0215 2.54523 14.8766 2.39021 13.3271 2.35847Z" fill="#3156DA" stroke="#3156DA"/>
<path d="M26.6521 9.40956C26.6175 9.20078 26.5848 8.9409 26.5598 8.63449C26.7682 8.66749 27.0201 8.75218 27.2496 8.89536C27.4781 9.03795 27.6685 9.2281 27.7842 9.46579C27.8568 9.61507 27.9068 9.79664 27.9105 10.0186C27.5585 10.0033 27.2658 9.96614 27.0445 9.91945C26.9057 9.89017 26.8063 9.8595 26.7425 9.83378C26.7376 9.8169 26.7323 9.79776 26.7268 9.77625C26.7034 9.68551 26.6775 9.56317 26.6521 9.40956ZM26.2774 8.62773C26.2766 8.62799 26.2762 8.6281 26.2762 8.62809C26.2762 8.62808 26.2766 8.62795 26.2774 8.62773Z" fill="#3156DA" stroke="#3156DA"/>
<rect x="31" y="17.9238" width="0.923874" height="3.49394" transform="rotate(-89.2789 31 17.9238)" fill="#3156DA"/>
<rect x="30" y="20.6337" width="0.896172" height="3.49394" transform="rotate(-45 30 20.6337)" fill="#3156DA"/>
<path d="M27.0423 20.9973L27.9935 21.0062L27.9606 24.5L27.0094 24.491L27.0423 20.9973Z" fill="#3156DA"/>
<path d="M8.76875 10.0888C7.47624 12.3294 4.92962 12.6285 2.83654 10.8713C0.53841 8.94198 1.69813 6.3139 3.76674 4.34986C5.83535 2.38581 10.9516 -0.898485 10.3276 3.75886C9.70366 8.41621 9.45341 8.53131 8.76875 10.0888Z" fill="#3156DA"/>
</svg>
